# xmcd
#
# Track frame offsets: 
#        150
#        22098
#        44143
#        64539
#        88291
#        129802
#        144870
#        168769
#        192806
#        209270
#        240701
#        261947
#        297669
#        319687
#
# Disc length: 4512 seconds
#
# Revision: 1
# Processed by: cddbd v1.5.2PL0 Copyright (c) Steve Scherf et al.
# Submitted via: ExactAudioCopy v0.99pb5
#
DISCID=ce119e0e
DTITLE=Mark Knopfler and Emmylou Harris - Real Live Roadrunning
DYEAR=2006
DGENRE=Blues
TTITLE0=Right now
TTITLE1=Red Staggerwing
TTITLE2=Red dirt girl
TTITLE3=Done with Bonaparte
TTITLE4=Romeo and Juliet
TTITLE5=All that matters
TTITLE6=This is us
TTITLE7=All the roadrunning
TTITLE8=Boulder to Birmingham
TTITLE9=Speedway at Nazareth
TTITLE10=So far away
TTITLE11=Our Shangri-La
TTITLE12=If this is goodbye
TTITLE13=Whi worry
EXTD=YEAR: 2006
EXTT0=
EXTT1=
EXTT2=
EXTT3=
EXTT4=
EXTT5=
EXTT6=
EXTT7=
EXTT8=
EXTT9=
EXTT10=
EXTT11=
EXTT12=
EXTT13=
PLAYORDER=
